{"title":"Kick Ass 2 2013 WEBRip NO SUBS x264-SPEED24","uid":8870629,"size":661524574,"categoryP":"video","categoryS":"movies","magnet":"?xt=urn:btih:51d492669a4960d55a49713bb864dea766e5be71&amp;dn=Kick+Ass+2+2013+WEBRip+NO+SUBS+x264-SPEED24&amp;tr=udp%3A%2F%2Ftracker.openbittorrent.com%3A80&amp;tr=udp%3A%2F%2Fopen.demonii.com%3A1337&amp;tr=udp%3A%2F%2Ftracker.coppersurfer.tk%3A6969&amp;tr=udp%3A%2F%2Fexodus.desync.com%3A6969","seeders":2,"leechers":0,"uploader":"TeX","files":2,"time":1378053047,"description":"\n\normat: AVI\nFormat/Info: Audio Video Interleave\nFile size: 631 MiB\nDuration: 1h 38mn\nOverall bit rate: 893 Kbps \n\n\n\nID: 0\nFormat: AVC\nFormat/Info: Advanced Video Codec\nFormat profile: &lt;a class=&quot;__cf_email__&quot; href=&quot;/cdn-cgi/l/email-protection&quot; data-cfemail=&quot;d49cbdb3bc9498e6fae5&quot;&gt;[email&amp;#160;protected]&lt;/a&gt;&lt;script cf-hash='f9e31' type=&quot;text/javascript&quot;&gt;\n/* &lt;![CDATA[ */!function(){try{var t=&quot;currentScript&quot;in document?document.currentScript:function(){for(var t=document.getElementsByTagName(&quot;script&quot;),e=t.length;e--;)if(t[e].getAttribute(&quot;cf-hash&quot;))return t[e]}();if(t&amp;&amp;t.previousSibling){var e,r,n,i,c=t.previousSibling,a=c.getAttribute(&quot;data-cfemail&quot;);if(a){for(e=&quot;&quot;,r=parseInt(a.substr(0,2),16),n=2;a.length-n;n+=2)i=parseInt(a.substr(n,2),16)^r,e+=String.fromCharCode(i);e=document.createTextNode(e),c.parentNode.replaceChild(e,c)}}}catch(u){}}();/* ]]&gt; */&lt;/script&gt;\nFormat settings, CABAC: Yes\nFormat settings, ReFrames: 4 frames\nCodec ID: H264\nDuration: 1h 38mn\nBit rate: 500 Kbps\nWidth: 720 pixels\nHeight: 216 pixels\nDisplay aspect ratio: 3.333\nFrame rate: 25.000 fps\nColor space: YUV\nChroma subsampling: 4:2:0\nBit depth: 8 bits\nScan type: Progressive\nBits/(Pixel*Frame): 0.129\nStream size: 352 MiB (56%)\nWriting library: x264 core 123 r2189 35cf912 \n\n\n\nID: 1\nFormat: AC-3\nFormat/Info: Audio Coding 3\nMode extension: CM (complete main)\nFormat settings, Endianness: Big\nCodec ID: 2000\nDuration: 1h 38mn\nBit rate mode: Constant\nBit rate: 384 Kbps\nChannel(s): 2 channels\nChannel positions: Front: L R\nSampling rate: 44.1 KHz\nBit depth: 16 bits\nCompression mode: Lossy\nStream size: 271 MiB (43%)\nAlignment: Aligned on interleaves\nInterleave, duration: 35 ms (0.87 video frame) \n\n\n\ncropped subs, change colour saturation \n[img]http://ultraimg.com/images/aIFW6.png[/img]\n[img]http://ultraimg.com/images/HVXpw.png[/img]\n[img]http://ultraimg.com/images/oK3Up.png[/img]","torrent":{"xt":"urn:btih:51d492669a4960d55a49713bb864dea766e5be71","amp;dn":"Kick+Ass+2+2013+WEBRip+NO+SUBS+x264-SPEED24","amp;tr":["udp%3A%2F%2Ftracker.openbittorrent.com%3A80","udp%3A%2F%2Fopen.demonii.com%3A1337","udp%3A%2F%2Ftracker.coppersurfer.tk%3A6969","udp%3A%2F%2Fexodus.desync.com%3A6969"],"infoHash":"51d492669a4960d55a49713bb864dea766e5be71","infoHashBuffer":{"type":"Buffer","data":[81,212,146,102,154,73,96,213,90,73,113,59,184,100,222,167,102,229,190,113]},"announce":[],"urlList":[]}}